# xmcd CD database file
#
# Track frame offsets:
#	150
#	15643
#	30596
#	44842
#	62883
#	77487
#	96245
#	108910
#	125468
#	138364
#	153482
#	168220
#
# Disc length: 2507 seconds
#
# Revision: 1
# Processed by: cddbd v1.5.2PL0 Copyright (c) Steve Scherf et al.
# Submitted via: CDex 1.70beta2
#
DISCID=9709c90c
DTITLE=Kamelot - Modra planeta
DYEAR=2006
DGENRE=Country
TTITLE0=Modra Planeta
TTITLE1=Ocarovana
TTITLE2=Dve pirka v pisku
TTITLE3=Predtucha
TTITLE4=American
TTITLE5=Nemame to lehky
TTITLE6=Zlata Ruth
TTITLE7=Den Svateho Patrika
TTITLE8=Stuj, neriskuj!
TTITLE9=V kukuricnem poli
TTITLE10=Vanocni cas
TTITLE11=Az spadne opona
EXTD=YEAR: 2006
EXTT0=
EXTT1=
EXTT2=
EXTT3=
EXTT4=
EXTT5=
EXTT6=
EXTT7=
EXTT8=
EXTT9=
EXTT10=
EXTT11=
PLAYORDER=
